<svg id="Layer_1" data-name="Layer 1" xmlns="http://www.w3.org/2000/svg" viewBox="0 0 49.26 49.26"><defs><style>.cls-1{fill:#077aba;}.cls-2{fill:#fff;}</style></defs><title>linkedin</title><circle class="cls-1" cx="24.63" cy="24.63" r="24.63"/><path class="cls-2" d="M39.15,27v9.8H33.47V27.62c0-2.3-.82-3.86-2.88-3.86a3.11,3.11,0,0,0-2.92,2.08,3.89,3.89,0,0,0-.19,1.39v9.55H21.8s0.08-15.49,0-17.09h5.68V22.1l0,0.06h0V22.1a5.64,5.64,0,0,1,5.12-2.82c3.74,0,6.54,2.44,6.54,7.69h0ZM15.86,11.44a3,3,0,1,0-.07,5.91h0a3,3,0,1,0,0-5.91h0ZM13,36.77h5.68V19.67H13V36.77Zm0,0" transform="translate(-0.37 -0.37)"/></svg>