<svg id="Layer_1" data-name="Layer 1" xmlns="http://www.w3.org/2000/svg" viewBox="0 0 49.26 49.26"><defs><style>.cls-1{fill:#44abe0;}.cls-2{fill:#fff;}</style></defs><title>twitter</title><circle class="cls-1" cx="24.63" cy="24.63" r="24.63"/><path class="cls-2" d="M40.2,15.57a12.45,12.45,0,0,1-3.58,1,6.26,6.26,0,0,0,2.74-3.45,12.48,12.48,0,0,1-4,1.51,6.24,6.24,0,0,0-10.63,5.69,17.71,17.71,0,0,1-12.86-6.52,6.24,6.24,0,0,0,1.93,8.33A6.2,6.2,0,0,1,11,21.33s0,0.05,0,.08a6.24,6.24,0,0,0,5,6.12,6.25,6.25,0,0,1-2.82.11A6.24,6.24,0,0,0,19,32,12.59,12.59,0,0,1,9.8,34.55a17.64,17.64,0,0,0,9.56,2.8c11.47,0,17.75-9.5,17.75-17.75q0-.41,0-0.81a12.66,12.66,0,0,0,3.11-3.23h0Zm0,0" transform="translate(-0.37 -0.37)"/></svg>