<svg xmlns="http://www.w3.org/2000/svg" viewBox="0 0 300 300"><defs><style>.cls-1{fill:#00a620;}.cls-2{fill:#fff;}</style></defs><title>whatsapp_icon</title><g id="Layer_2" data-name="Layer 2"><g id="Layer_1-2" data-name="Layer 1"><circle class="cls-1" cx="150" cy="150" r="150"/><path id="WhatsApp" class="cls-2" d="M247,147.5c0,52.19-42.63,94.5-95.24,94.5a95.27,95.27,0,0,1-46-11.76L53,247l17.19-50.7a93.53,93.53,0,0,1-13.67-48.8c0-52.19,42.64-94.5,95.24-94.5S247,95.31,247,147.5ZM151.76,68.05c-44.15,0-80.07,35.64-80.07,79.45A78.56,78.56,0,0,0,87,194.08l-10,29.51,30.77-9.78A80,80,0,0,0,151.77,227c44.14,0,80.07-35.63,80.07-79.44S195.92,68.05,151.76,68.05Zm48.1,101.22c-.59-1-2.15-1.55-4.48-2.71s-13.82-6.76-15.95-7.53-3.7-1.16-5.26,1.16-6,7.53-7.39,9.08-2.72,1.74-5.06.58-9.85-3.61-18.77-11.5a69.91,69.91,0,0,1-13-16c-1.36-2.32-.14-3.57,1-4.73s2.33-2.7,3.5-4.05a15.52,15.52,0,0,0,2.33-3.87,4.19,4.19,0,0,0-.19-4.06c-.58-1.16-5.26-12.55-7.2-17.19s-3.89-3.87-5.25-3.87-2.92-.19-4.48-.19a8.6,8.6,0,0,0-6.22,2.9c-2.14,2.32-8.17,7.92-8.17,19.32s8.36,22.41,9.53,24,16.15,25.7,39.88,35,23.73,6.18,28,5.79,13.81-5.6,15.77-11S200.44,170.23,199.86,169.27Z"/></g></g></svg>